<svg id="Layer_1_1_" enable-background="new 0 0 64 64" height="512" viewBox="0 0 64 64" width="512" xmlns="http://www.w3.org/2000/svg"><path d="m57 42c0 1.38-.56 2.63-1.46 3.54-.91.9-2.16 1.46-3.54 1.46h-9l-4-9v12l3.43 3.43-10.42 1.1h-.01l-10.43-1.1 3.43-3.43v-12l-4 9h-9c-1.38 0-2.63-.56-3.54-1.46-.9-.91-1.46-2.16-1.46-3.54h10l2.09-5.73c.85-2.36 2.74-4.13 5.04-4.88.01-.01.03-.01.04-.01.77-.25 1.59-.38 2.43-.38h10.8c.84 0 1.66.13 2.43.38.01 0 .03 0 .04.01 2.3.75 4.19 2.52 5.04 4.88l2.09 5.73z" fill="#ded8d0"/><path d="m44.91 36.27c-.786-2.183-2.467-3.849-4.534-4.683-1.858 8.234-7.737 15.079-15.641 18.678l-3.165 3.165 10.43 1.1h.01l10.42-1.1-3.43-3.43v-12l4 9h9c1.38 0 2.63-.56 3.54-1.46.9-.91 1.46-2.16 1.46-3.54h-10z" fill="#d4cec7"/><path d="m46 58.37c0 .73-.3 1.38-.77 1.86-.48.47-1.13.77-1.86.77h-31.11c-2.35 0-4.26-1.91-4.26-4.26 0-2.38 1.93-4.26 4.25-4.26.15 0 .3 0 .46.02l8.86.93 10.43 1.1h.01l11.63 1.22c1.34.14 2.36 1.27 2.36 2.62z" fill="#5dc4dd"/><path d="m56 56.74c0 2.35-1.91 4.26-4.26 4.26h-8.37c.73 0 1.38-.3 1.86-.77.47-.48.77-1.13.77-1.86 0-1.35-1.02-2.48-2.36-2.62l-11.63-1.22 10.42-1.1 8.86-.93c.16-.02.31-.02.46-.02 2.32 0 4.25 1.88 4.25 4.26z" fill="#5dc4dd"/><path d="m23.387 51.613-1.817 1.817 10.43 1.1h.01l10.42-1.1-1.817-1.817-8.608.906z" fill="#c9c4bd"/><path d="m43.37 61h3.798c.536-.774.832-1.681.832-2.63 0-2.38-1.785-4.362-4.151-4.609l-2.281-.24-9.558 1.009 11.63 1.22c1.34.14 2.36 1.27 2.36 2.62 0 .73-.3 1.38-.77 1.86-.48.47-1.13.77-1.86.77z" fill="#50b6cf"/><path d="m37 14.96v.04c0 6.22-4.39 11.32-4.94 11.94 0 .01-.01.02-.02.02s-.01 0-.01 0c-.01.01-.01.02-.01.02 0 .01 0 .01-.01.01-.01.01-.01.01-.01.01s-.01-.01-.02-.02c0 0 0-.01-.01-.02 0 0 0 0-.01 0s-.02-.01-.02-.02c-.55-.62-4.94-5.72-4.94-11.94v-.04c.02-6.61 5-11.96 5-11.96s4.98 5.35 5 11.96z" fill="#ea5b58"/><path d="m56 27s-5.37 5-12 5c-1.45 0-2.84-.24-4.13-.61-.01-.01-.03-.01-.04-.01-4.57-1.35-7.83-4.38-7.83-4.38s0 0 .01-.01c.01 0 .01 0 .01-.01h.01v.02s7.33-.26 12.02-4.95l.05-.05c6.58.05 11.9 5 11.9 5z" fill="#5dc4dd"/><path d="m49 10.03s-.26 7.28-4.9 11.97l-.05.05c-4.69 4.69-12.02 4.95-12.02 4.95s0-.01 0-.02c0 0 .01-.01.01-.02.01 0 .02-.01.02-.02.55-.62 4.94-5.72 4.94-11.94v-.04c4.69-4.67 12-4.93 12-4.93z" fill="#ffb554"/><path d="m32 27s-3.26 3.03-7.83 4.38c-.01 0-.03 0-.04.01-1.29.37-2.68.61-4.13.61-6.63 0-12-5-12-5s5.32-4.95 11.9-5l.05.05c4.69 4.69 12.02 4.95 12.02 4.95s0-.01 0-.02h.01c.01.01.02.02.02.02z" fill="#5dc4dd"/><path d="m31.97 26.98v.02s-7.33-.26-12.02-4.95l-.05-.05c-4.64-4.69-4.9-11.97-4.9-11.97s7.31.26 12 4.93v.04c0 6.22 4.39 11.32 4.94 11.94 0 .01.01.02.02.02 0 .01.01.02.01.02z" fill="#ffb554"/><path d="m37 14.96v.04c0 6.22-4.39 11.32-4.94 11.94 0 .01-.01.02-.02.02 0 .01-.01.02-.01.02v.02s7.33-.26 12.02-4.95l.05-.05c4.64-4.69 4.9-11.97 4.9-11.97s-7.31.26-12 4.93z" fill="#ffb554"/><path d="m45.521 23.407c.371-.375.711-.767 1.033-1.166-.791-.146-1.612-.235-2.454-.241l-.05.05c-4.69 4.69-12.02 4.95-12.02 4.95s0-.01 0-.02c-.01 0-.01 0-.01 0 0 .01 0 .01-.01.01-.01.01-.01.01-.01.01s.857.794 2.302 1.749c2.773-.451 7.605-1.727 11.219-5.342z" fill="#50b6cf"/><path d="m31.97 26.98v.02s-7.33-.26-12.02-4.95l-.05-.05c-.839.006-1.656.094-2.445.239.337.419.691.831 1.082 1.225 3.574 3.574 8.391 4.838 11.16 5.287 1.445-.956 2.303-1.751 2.303-1.751s-.01-.01-.02-.02z" fill="#50b6cf"/><path d="m31.94 26.94c-.55-.62-4.94-5.72-4.94-11.94v-.04c-4.69-4.67-12-4.93-12-4.93s.26 7.28 4.9 11.97l.05.05c4.69 4.69 12.02 4.95 12.02 4.95s0-.01 0-.02c0 0-.01-.01-.01-.02-.01 0-.02-.01-.02-.02z" fill="#ffb554"/><path d="m37 15c0 6.22-4.39 11.32-4.94 11.94 0 .01-.01.02-.02.02 0 .01-.01.02-.01.02v.02s1.155-.046 2.831-.385c1.66-2.31 4.139-6.602 4.139-11.661-.002-.535-.039-1.059-.093-1.576-.664.462-1.307.985-1.907 1.582z" fill="#f5a947"/><path d="m31.97 26.98s-.01-.01-.01-.02c-.01 0-.02-.01-.02-.02-.55-.62-4.94-5.72-4.94-11.94v-.04c-.598-.596-1.24-1.118-1.903-1.579-.056.531-.095 1.069-.097 1.619 0 5.025 2.478 9.308 4.138 11.615 1.677.339 2.832.385 2.832.385s0-.01 0-.02z" fill="#f5a947"/><g fill="#223b5a"><path d="m31 34h2v2h-2z"/><path d="m31 38h2v2h-2z"/><path d="m31 42h2v2h-2z"/></g></svg>