<svg id="Capa_1" enable-background="new 0 0 512 512" height="512" viewBox="0 0 512 512" width="512" xmlns="http://www.w3.org/2000/svg"><g><g><path d="m281 0h-220c-30.327 0-55 24.673-55 55v402c0 30.327 24.673 55 55 55h220c30.327 0 55-24.673 55-55v-402c0-30.327-24.673-55-55-55z" fill="#f4f4f6"/><path d="m281 0h-110v512h110c30.327 0 55-24.673 55-55v-402c0-30.327-24.673-55-55-55z" fill="#e2dff4"/><path d="m61 30h220c13.785 0 25 11.215 25 25v367h-270v-367c0-13.785 11.215-25 25-25z" fill="#8bb9ff"/><path d="m281 30h-110v392h135v-367c0-13.785-11.215-25-25-25z" fill="#7d81e7"/><path d="m191 90h-40c-8.284 0-15-6.716-15-15s6.716-15 15-15h40c8.284 0 15 6.716 15 15s-6.716 15-15 15z" fill="#f4f4f6"/><path d="m191 60h-20v30h20c8.284 0 15-6.716 15-15s-6.716-15-15-15z" fill="#e2dff4"/><circle cx="96" cy="75" fill="#f4f4f6" r="15"/></g><g><g fill="#ffb454"><path d="m376 222c-16.542 0-30-13.458-30-30s13.458-30 30-30 30 13.458 30 30-13.458 30-30 30z"/><path d="m306 222c-22.056 0-40-17.944-40-40s17.944-40 40-40 40 17.944 40 40-17.944 40-40 40z"/><path d="m490.999 372c-2.292 0-4.59-.525-6.707-1.583l-60-30c-5.082-2.542-8.292-7.735-8.292-13.417v-60c0-5.682 3.21-10.875 8.292-13.417l60-30c4.649-2.325 10.171-2.076 14.594.657s7.114 7.561 7.114 12.76v120c0 5.199-2.691 10.027-7.114 12.76-2.408 1.489-5.144 2.24-7.887 2.24z"/></g><path d="m416 297v30c0 5.682 3.21 10.875 8.292 13.417l60 30c2.117 1.059 4.415 1.583 6.707 1.583 2.743 0 5.479-.751 7.887-2.24 4.423-2.733 7.114-7.561 7.114-12.76v-60z" fill="#ff7038"/><path d="m411 372h-160c-19.299 0-35-15.701-35-35v-80c0-19.299 15.701-35 35-35h160c19.299 0 35 15.701 35 35v80c0 19.299-15.701 35-35 35z" fill="#ffe278"/><path d="m216 297v40c0 19.299 15.701 35 35 35h160c19.299 0 35-15.701 35-35v-40z" fill="#ffb454"/></g></g></svg>